<svg width="38" height="44" viewBox="0 0 38 44" fill="none" xmlns="http://www.w3.org/2000/svg">
<path fill-rule="evenodd" clip-rule="evenodd" d="M2.23941 10.6272C0.25 13.3653 0.25 17.2713 0.25 25.0833C0.25 32.8952 0.25 36.8012 2.23941 39.5393C2.8819 40.4237 3.65958 41.2014 4.5439 41.8438C7.28209 43.8333 11.1881 43.8333 19 43.8333C26.8119 43.8333 30.7179 43.8333 33.4561 41.8438C34.3404 41.2014 35.1181 40.4237 35.7606 39.5393C37.75 36.8012 37.75 32.8952 37.75 25.0833C37.75 17.2713 37.75 13.3653 35.7606 10.6272C35.1181 9.74284 34.3404 8.96515 33.4561 8.32266C33.4082 8.28787 33.36 8.25368 33.3113 8.2201C30.5801 6.33325 26.6753 6.33325 19 6.33325C11.3249 6.33325 7.42015 6.33325 4.68891 8.21992C4.64021 8.25356 4.59188 8.2878 4.5439 8.32266C3.65958 8.96515 2.8819 9.74284 2.23941 10.6272ZM20.5625 18.8333C20.5625 17.9703 19.8629 17.2708 19 17.2708C18.1371 17.2708 17.4375 17.9703 17.4375 18.8333V23.5208H12.75C11.8871 23.5208 11.1875 24.2203 11.1875 25.0833C11.1875 25.9462 11.8871 26.6458 12.75 26.6458H17.4375V31.3333C17.4375 32.1962 18.1371 32.8958 19 32.8958C19.8629 32.8958 20.5625 32.1962 20.5625 31.3333V26.6458H25.25C26.1129 26.6458 26.8125 25.9462 26.8125 25.0833C26.8125 24.2203 26.1129 23.5208 25.25 23.5208H20.5625V18.8333Z" fill="#DCDCDC"/>
<path d="M18.9999 0.083252C22.8776 0.083252 24.8164 0.083252 26.3855 0.59308C29.1314 1.48529 31.3638 3.46909 32.5822 6.04395C31.29 5.48899 29.8375 5.18758 28.1706 5.01492C25.8131 4.77072 22.8514 4.77074 19.0891 4.77075H18.9107C15.1486 4.77074 12.187 4.77072 9.82947 5.0149C8.16251 5.18755 6.70984 5.48897 5.41764 6.04396C6.63597 3.46909 8.86837 1.48529 11.6143 0.59308C13.1834 0.083252 15.1222 0.083252 18.9999 0.083252Z" fill="#DCDCDC"/>
</svg>
