<svg width="43" height="42" viewBox="0 0 43 42" fill="none" xmlns="http://www.w3.org/2000/svg">
<path d="M36.2385 5.67181C34.9609 5.2691 33.5253 5.07358 31.8666 4.97123C29.9707 4.85424 27.6668 4.85424 24.8401 4.85425H18.4598C15.1195 4.85424 12.5008 4.85422 10.4087 5.05314C8.27633 5.25589 6.53029 5.67627 4.99108 6.6195C3.37921 7.60725 2.02401 8.96245 1.03626 10.5743C1.00126 10.6314 0.966989 10.6888 0.933419 10.7465C1.09445 7.73994 1.51504 5.74867 2.61361 4.17231C3.18851 3.34737 3.88437 2.62191 4.67564 2.02256C7.12573 0.166748 10.6207 0.166748 17.6108 0.166748H28.7956C32.3106 0.166748 34.0681 0.166748 35.1601 1.30518C35.9988 2.17953 36.1934 3.46316 36.2385 5.67181Z" fill="#DCDCDC"/>
<path d="M2.36831 11.3907C0.833313 13.8956 0.833313 17.3054 0.833313 24.1251C0.833313 30.9447 0.833313 34.3546 2.36831 36.8594C3.22722 38.2611 4.40567 39.4395 5.80729 40.2984C8.31218 41.8334 11.722 41.8334 18.5416 41.8334H24.7916C31.6113 41.8334 35.0211 41.8334 37.526 40.2984C38.9276 39.4395 40.1061 38.2611 40.965 36.8594C41.9731 35.2144 42.3191 33.179 42.4379 30.0437H29.2426C25.2417 30.0437 21.9983 26.8003 21.9983 22.7994C21.9983 18.7984 25.2417 15.555 29.2426 15.555H42.2452C42.0363 13.8308 41.6564 12.519 40.965 11.3907C40.1061 9.9891 38.9276 8.81066 37.526 7.95175C37.127 7.70724 36.705 7.50167 36.25 7.32885C33.8483 6.41675 30.525 6.41675 24.7916 6.41675H18.5416C11.722 6.41675 8.31218 6.41675 5.80729 7.95175C4.40567 8.81066 3.22722 9.9891 2.36831 11.3907Z" fill="#DCDCDC"/>
<path fill-rule="evenodd" clip-rule="evenodd" d="M42.4539 18.68H29.2426C26.9676 18.68 25.1233 20.5243 25.1233 22.7994C25.1233 25.0744 26.9675 26.9187 29.2426 26.9187H42.4951C42.5 26.0558 42.5 25.1273 42.5 24.1251C42.5 22.0058 42.5 20.2159 42.4539 18.68ZM29.2426 21.2369C28.3796 21.2369 27.6801 21.9364 27.6801 22.7994C27.6801 23.6623 28.3796 24.3619 29.2426 24.3619H34.9244C35.7873 24.3619 36.4869 23.6623 36.4869 22.7994C36.4869 21.9364 35.7873 21.2369 34.9244 21.2369H29.2426Z" fill="#DCDCDC"/>
</svg>
