<svg width="40" height="43" viewBox="0 0 40 43" fill="none" xmlns="http://www.w3.org/2000/svg">
<path d="M33.0625 27.2501C33.0625 26.3871 32.3629 25.6876 31.5 25.6876C30.6371 25.6876 29.9375 26.3871 29.9375 27.2501V31.9376H25.25C24.3871 31.9376 23.6875 32.6371 23.6875 33.5001C23.6875 34.363 24.3871 35.0626 25.25 35.0626H29.9375V39.7501C29.9375 40.613 30.6371 41.3126 31.5 41.3126C32.3629 41.3126 33.0625 40.613 33.0625 39.7501V35.0626H37.75C38.6129 35.0626 39.3125 34.363 39.3125 33.5001C39.3125 32.6371 38.6129 31.9376 37.75 31.9376H33.0625V27.2501Z" fill="#DCDCDC"/>
<path d="M6.5 10.0626C6.5 4.59726 10.9305 0.166748 16.3958 0.166748C21.8612 0.166748 26.2917 4.59726 26.2917 10.0626C26.2917 15.5279 21.8612 19.9584 16.3958 19.9584C10.9305 19.9584 6.5 15.5279 6.5 10.0626Z" fill="#DCDCDC"/>
<path d="M0.25 32.9792C0.25 27.5139 4.68052 23.0834 10.1458 23.0834H22.6458C24.6868 23.0834 26.5834 23.7013 28.1589 24.7601C27.6403 25.4548 27.3333 26.3166 27.3333 27.2501V29.3334H25.25C22.9488 29.3334 21.0833 31.1989 21.0833 33.5001C21.0833 35.8013 22.9488 37.6667 25.25 37.6667H27.3333V39.7501C27.3333 40.3685 27.468 40.9554 27.7097 41.4831C26.2283 42.3671 24.4964 42.8751 22.6458 42.8751H10.1458C4.68051 42.8751 0.25 38.4446 0.25 32.9792Z" fill="#DCDCDC"/>
</svg>
