<svg width="37" height="35" viewBox="0 0 37 35" fill="none" xmlns="http://www.w3.org/2000/svg">
<path d="M12.4685 9.32194L17.1154 1.77065C17.6651 0.877385 18.6389 0.333252 19.6878 0.333252C21.5389 0.333252 22.9545 1.98327 22.673 3.81288L22.1667 7.10409C21.619 10.6642 24.3735 13.8749 27.9755 13.8749H29.4125C34.6979 13.8749 38.1356 19.4371 35.7718 24.1646L33.3791 28.9501C31.6146 32.4791 28.0077 34.7083 24.0621 34.7083H18C15.1919 34.7083 12.7082 33.3193 11.1984 31.191C11.2188 30.9772 11.2292 30.7606 11.2292 30.5416V13.8749C11.2292 13.1853 11.1261 12.5198 10.9345 11.893C11.3037 11.2148 11.7953 10.4159 12.4685 9.32194Z" fill="#DCDCDC"/>
<path d="M8.10417 30.5416C8.10417 32.5551 6.47187 34.1874 4.45833 34.1874C2.4448 34.1874 0.8125 32.5551 0.8125 30.5416V13.8749C0.8125 11.8614 2.4448 10.2291 4.45833 10.2291C6.47187 10.2291 8.10417 11.8614 8.10417 13.8749V30.5416Z" fill="#DCDCDC"/>
</svg>
