<svg width="32" height="45" viewBox="0 0 32 45" fill="none" xmlns="http://www.w3.org/2000/svg">
<path d="M10.8751 11.9922C12.8283 11.9922 14.5143 10.6957 15.0947 8.85032C15.4951 7.57756 17.1716 7.57756 17.572 8.85032C18.1524 10.6957 19.8384 11.9922 21.7916 11.9922C22.3959 11.9922 22.8469 12.3639 23.0302 12.9468C23.2147 13.5333 23.064 14.1494 22.5404 14.5424C20.9918 15.7047 20.3673 17.7372 20.9454 19.5751C21.1588 20.2536 20.9034 20.8346 20.4555 21.1707C20.015 21.5013 19.4633 21.55 18.9579 21.1707C17.3965 19.9988 15.2702 19.9988 13.7087 21.1707C13.2034 21.55 12.6517 21.5013 12.2112 21.1707C11.7633 20.8346 11.5079 20.2536 11.7213 19.5751C12.2994 17.7372 11.6749 15.7047 10.1263 14.5424C9.60268 14.1494 9.45199 13.5333 9.63646 12.9468C9.81981 12.3639 10.2708 11.9922 10.8751 11.9922Z" fill="#DCDCDC"/>
<path fill-rule="evenodd" clip-rule="evenodd" d="M16.3333 31.3333C24.9628 31.3333 31.9583 24.3377 31.9583 15.7083C31.9583 7.0788 24.9628 0.083252 16.3333 0.083252C7.70389 0.083252 0.708344 7.0788 0.708344 15.7083C0.708344 24.3377 7.70389 31.3333 16.3333 31.3333ZM20.553 7.91267C19.2353 3.72345 13.4314 3.72345 12.1137 7.91267C11.9258 8.50993 11.4082 8.86724 10.8751 8.86724C6.48121 8.86724 4.89147 14.5208 8.25048 17.0418C8.71335 17.3892 8.93057 18.0326 8.74032 18.6374C8.09473 20.6899 8.92276 22.6099 10.3354 23.6701C11.7553 24.7357 13.841 24.9786 15.5846 23.6701C16.0346 23.3323 16.6321 23.3323 17.0821 23.6701C18.8257 24.9786 20.9114 24.7357 22.3313 23.6701C23.7439 22.6099 24.572 20.6899 23.9264 18.6374C23.7361 18.0326 23.9533 17.3892 24.4162 17.0418C27.7752 14.5208 26.1855 8.86724 21.7916 8.86724C21.2585 8.86724 20.7408 8.50993 20.553 7.91267Z" fill="#DCDCDC"/>
<path d="M16.3333 34.4583C21.1356 34.4583 25.5161 32.6529 28.8333 29.6839V39.4138C28.8333 42.6726 28.8333 44.302 27.7938 44.7669C26.7543 45.2319 25.4821 44.1715 22.9377 42.0507L20.9819 40.4205C18.7636 38.5716 17.6545 37.6471 16.3333 37.6471C15.0122 37.6471 13.9031 38.5716 11.6848 40.4205L9.72903 42.0507C7.18463 44.1715 5.91243 45.2319 4.87288 44.7669C3.83334 44.302 3.83334 42.6726 3.83334 39.4138V29.6839C7.15057 32.6529 11.5311 34.4583 16.3333 34.4583Z" fill="#DCDCDC"/>
</svg>
