<svg width="146" height="31" viewBox="0 0 146 31" fill="none" xmlns="http://www.w3.org/2000/svg">
<path d="M7.45725 0.151999C10.4013 0.151999 12.5453 0.791999 13.8893 2.072C15.2546 3.33067 15.9373 5.06933 15.9373 7.288C15.9373 8.29067 15.7879 9.25067 15.4893 10.168C15.1906 11.064 14.6893 11.8747 13.9853 12.6C13.3026 13.304 12.3959 13.8587 11.2653 14.264C10.1346 14.6693 8.73725 14.872 7.07325 14.872H4.99325V23H0.16125V0.151999H7.45725ZM7.20125 4.12H4.99325V10.904H6.59325C7.51058 10.904 8.29992 10.7867 8.96125 10.552C9.62258 10.3173 10.1346 9.944 10.4973 9.432C10.8599 8.92 11.0413 8.25867 11.0413 7.448C11.0413 6.31733 10.7319 5.48533 10.1133 4.952C9.49458 4.39733 8.52392 4.12 7.20125 4.12ZM17.375 5.528H22.591L25.887 15.352C25.9937 15.672 26.079 15.992 26.143 16.312C26.2283 16.632 26.2923 16.9627 26.335 17.304C26.399 17.6453 26.4417 18.008 26.463 18.392H26.559C26.623 17.8373 26.7083 17.3147 26.815 16.824C26.943 16.312 27.0817 15.8213 27.231 15.352L30.463 5.528H35.583L28.191 25.24C27.743 26.4347 27.1563 27.4373 26.431 28.248C25.727 29.0587 24.9057 29.6667 23.967 30.072C23.0283 30.4773 22.0043 30.68 20.895 30.68C20.3617 30.68 19.8923 30.648 19.487 30.584C19.103 30.5413 18.7617 30.488 18.463 30.424V26.648C18.6977 26.6907 18.975 26.7333 19.295 26.776C19.6363 26.8187 19.9883 26.84 20.351 26.84C21.0123 26.84 21.5777 26.7013 22.047 26.424C22.5377 26.1467 22.943 25.7627 23.263 25.272C23.583 24.8027 23.839 24.2907 24.031 23.736L24.319 22.872L17.375 5.528ZM45.1938 23.32C43.4658 23.32 41.9938 23.0107 40.7778 22.392C39.5618 21.752 38.6338 20.7707 37.9938 19.448C37.3538 18.1253 37.0338 16.4293 37.0338 14.36C37.0338 12.2267 37.3964 10.488 38.1218 9.144C38.8471 7.8 39.8498 6.808 41.1298 6.168C42.4311 5.528 43.9244 5.208 45.6098 5.208C46.8044 5.208 47.8391 5.32533 48.7138 5.56C49.6098 5.79467 50.3884 6.072 51.0498 6.392L49.6418 10.072C48.8951 9.77333 48.1911 9.528 47.5298 9.336C46.8898 9.144 46.2498 9.048 45.6098 9.048C44.7778 9.048 44.0844 9.25067 43.5298 9.656C42.9751 10.04 42.5591 10.6267 42.2818 11.416C42.0258 12.184 41.8978 13.1547 41.8978 14.328C41.8978 15.48 42.0364 16.44 42.3138 17.208C42.6124 17.9547 43.0391 18.52 43.5938 18.904C44.1484 19.2667 44.8204 19.448 45.6098 19.448C46.6124 19.448 47.4978 19.32 48.2658 19.064C49.0338 18.7867 49.7804 18.4133 50.5058 17.944V22.008C49.7804 22.4773 49.0124 22.808 48.2018 23C47.4124 23.2133 46.4098 23.32 45.1938 23.32ZM63.7113 23H58.8793V4.184H52.6713V0.151999H69.9193V4.184H63.7113V23ZM78.0085 5.208C79.6298 5.208 81.0165 5.51733 82.1685 6.136C83.3418 6.75467 84.2485 7.65067 84.8885 8.824C85.5285 9.99733 85.8485 11.4373 85.8485 13.144V15.448H74.5845C74.6272 16.792 75.0218 17.848 75.7685 18.616C76.5365 19.384 77.5925 19.768 78.9365 19.768C80.0672 19.768 81.0912 19.6613 82.0085 19.448C82.9258 19.2133 83.8752 18.8613 84.8565 18.392V22.072C84.0032 22.4987 83.0965 22.808 82.1365 23C81.1978 23.2133 80.0565 23.32 78.7125 23.32C76.9632 23.32 75.4165 23 74.0725 22.36C72.7285 21.6987 71.6725 20.7067 70.9045 19.384C70.1365 18.0613 69.7525 16.3973 69.7525 14.392C69.7525 12.344 70.0938 10.648 70.7765 9.304C71.4805 7.93867 72.4512 6.91467 73.6885 6.232C74.9258 5.54933 76.3658 5.208 78.0085 5.208ZM78.0405 8.6C77.1232 8.6 76.3552 8.89867 75.7365 9.496C75.1392 10.0933 74.7872 11.0213 74.6805 12.28H81.3685C81.3685 11.576 81.2405 10.9467 80.9845 10.392C80.7498 9.83733 80.3872 9.4 79.8965 9.08C79.4058 8.76 78.7872 8.6 78.0405 8.6ZM93.2988 14.072L87.6668 5.528H93.0748L96.4668 11.096L99.8908 5.528H105.299L99.6028 14.072L105.555 23H100.147L96.4668 17.016L92.7868 23H87.3788L93.2988 14.072ZM112.983 5.528V12.248H119.639V5.528H124.407V23H119.639V15.8H112.983V23H108.215V5.528H112.983ZM145.274 14.232C145.274 15.6827 145.072 16.9733 144.666 18.104C144.282 19.2347 143.717 20.1947 142.97 20.984C142.245 21.752 141.36 22.3387 140.314 22.744C139.269 23.128 138.085 23.32 136.762 23.32C135.546 23.32 134.416 23.128 133.37 22.744C132.346 22.3387 131.461 21.752 130.714 20.984C129.968 20.1947 129.381 19.2347 128.954 18.104C128.549 16.9733 128.346 15.6827 128.346 14.232C128.346 12.2907 128.688 10.6587 129.37 9.336C130.053 7.992 131.034 6.968 132.314 6.264C133.594 5.56 135.109 5.208 136.858 5.208C138.501 5.208 139.952 5.56 141.21 6.264C142.469 6.968 143.461 7.992 144.186 9.336C144.912 10.6587 145.274 12.2907 145.274 14.232ZM133.21 14.232C133.21 15.384 133.328 16.3547 133.562 17.144C133.818 17.912 134.213 18.4987 134.746 18.904C135.28 19.288 135.973 19.48 136.826 19.48C137.68 19.48 138.362 19.288 138.874 18.904C139.408 18.4987 139.792 17.912 140.026 17.144C140.282 16.3547 140.41 15.384 140.41 14.232C140.41 13.08 140.282 12.12 140.026 11.352C139.792 10.584 139.408 10.008 138.874 9.624C138.341 9.24 137.648 9.048 136.794 9.048C135.536 9.048 134.618 9.48533 134.042 10.36C133.488 11.2133 133.21 12.504 133.21 14.232Z" fill="#76B711"/>
</svg>
